<?xml version="1.0" standalone="no"?>
<!DOCTYPE svg PUBLIC "-//W3C//DTD SVG 20010904//EN"
 "http://www.w3.org/TR/2001/REC-SVG-20010904/DTD/svg10.dtd">
<svg version="1.0" xmlns="http://www.w3.org/2000/svg"
 width="640.000000pt" height="627.000000pt" viewBox="0 0 640.000000 627.000000"
 preserveAspectRatio="xMidYMid meet">

<g transform="translate(0.000000,627.000000) scale(0.100000,-0.100000)"
fill="#000000" stroke="none">
<path d="M2795 6234 c-397 -40 -720 -129 -1074 -295 -156 -74 -411 -232 -541
-337 -171 -138 -385 -351 -503 -502 -61 -78 -212 -302 -249 -370 -19 -36 -46
-85 -60 -110 -173 -317 -305 -752 -343 -1131 -67 -667 64 -1306 387 -1887 17
-32 39 -68 48 -82 104 -158 176 -263 189 -277 9 -10 38 -46 64 -80 120 -157
346 -370 552 -520 426 -311 874 -492 1425 -575 135 -21 664 -17 815 5 248 37
468 98 734 203 l164 65 31 -29 c126 -119 338 -226 539 -274 77 -18 121 -22
272 -22 163 0 190 3 281 26 224 59 390 151 544 300 85 81 137 152 195 261 93
178 128 317 128 512 1 309 -96 554 -307 782 -37 40 -89 88 -116 108 l-49 36
40 112 c64 178 114 396 145 627 22 167 21 563 -1 745 -47 381 -139 693 -305
1030 -411 832 -1153 1418 -2055 1619 -221 49 -311 58 -620 61 -159 1 -308 1
-330 -1z m382 -728 c82 -22 143 -57 200 -115 133 -134 164 -339 76 -504 -35
-64 -116 -148 -171 -176 l-42 -21 0 -200 0 -200 24 0 c46 0 202 -52 301 -100
208 -102 350 -238 478 -457 19 -34 80 -107 134 -162 54 -55 123 -138 153 -185
54 -82 56 -85 95 -85 62 -2 203 -39 259 -69 84 -45 187 -154 232 -247 l39 -80
5 -335 c3 -214 9 -335 15 -335 6 0 66 6 135 14 69 7 152 11 185 8 33 -4 70 -6
82 -7 13 0 22 -5 20 -12 -1 -6 9 -14 23 -18 23 -6 23 -7 5 -11 -26 -7 -41 -6
-38 4 2 4 -5 7 -15 7 -14 0 -15 2 -2 10 9 6 10 10 3 10 -16 0 -26 -17 -13 -25
5 -3 10 -14 10 -23 0 -14 -2 -14 -9 -3 -5 8 -14 10 -21 6 -9 -5 -11 -4 -6 3 5
8 0 12 -13 12 -29 0 -35 -17 -8 -24 13 -3 18 -9 12 -13 -6 -5 -15 -19 -21 -33
-7 -16 -21 -26 -35 -27 -13 -1 -25 -7 -27 -13 -2 -5 -12 -10 -23 -10 -10 0
-19 -4 -19 -10 0 -5 5 -10 10 -10 21 0 9 -19 -19 -31 -20 -9 -31 -23 -36 -44
-6 -28 -7 -29 -20 -12 -13 18 -14 17 -17 -5 -2 -13 -11 -24 -23 -26 -28 -5
-53 -30 -57 -56 -2 -16 -11 -22 -35 -24 -35 -3 -44 -18 -45 -74 -1 -18 -3 -27
-5 -20 -3 6 -13 12 -24 12 -13 0 -19 -7 -19 -23 0 -27 -36 -61 -56 -53 -9 3
-12 1 -9 -4 4 -6 -3 -31 -15 -56 -23 -46 -69 -80 -96 -70 -9 3 -14 -1 -14 -14
0 -10 8 -21 18 -24 9 -3 2 -4 -16 -2 l-32 3 22 -21 c21 -20 35 -20 549 -24
516 -4 528 -5 565 -26 56 -31 84 -78 84 -140 0 -67 -32 -115 -97 -147 l-48
-24 -550 0 c-519 0 -618 3 -610 15 2 3 -10 12 -26 19 -17 7 -38 28 -46 47 -9
18 -21 30 -26 27 -7 -4 -8 1 -4 13 7 18 6 18 -6 2 -8 -10 -16 -16 -18 -14 -2
3 -5 -10 -5 -27 l-1 -32 13 30 c11 24 13 26 14 9 0 -11 -9 -29 -21 -40 -12
-10 -30 -36 -40 -57 -11 -20 -24 -37 -29 -37 -6 0 -10 -9 -10 -20 0 -10 -18
-38 -39 -61 -22 -22 -37 -47 -34 -54 2 -8 -5 -22 -16 -32 -12 -9 -21 -22 -21
-27 0 -5 -18 -34 -41 -64 -26 -34 -43 -69 -46 -93 -5 -32 -9 -38 -24 -34 -21
7 -36 -12 -20 -28 6 -6 11 -18 11 -27 -1 -17 -23 21 -35 59 -5 18 -4 22 6 16
8 -5 5 1 -6 12 -12 13 -23 16 -27 10 -11 -17 -240 16 -404 58 -60 15 -64 15
-180 -14 -169 -41 -287 -55 -459 -55 -272 0 -476 47 -715 165 -123 61 -212
125 -332 239 -153 144 -246 278 -318 457 l-33 81 -59 12 c-174 34 -329 158
-397 318 -29 70 -41 211 -41 507 0 287 8 346 60 451 85 174 249 284 447 301
l75 6 55 86 c32 49 102 134 164 197 60 62 109 117 109 124 0 30 120 192 201
272 93 91 178 152 294 210 64 33 201 80 268 93 15 3 38 7 52 10 l25 5 0 189 0
189 -53 30 c-64 36 -156 133 -185 195 -44 93 -53 191 -27 289 60 233 296 374
522 314z m2260 -3272 c-3 -3 -12 -4 -19 -1 -8 3 -5 6 6 6 11 1 17 -2 13 -5z
m-913 -990 c3 -8 2 -12 -4 -9 -6 3 -10 10 -10 16 0 14 7 11 14 -7z m6 -33 c0
-6 -4 -13 -10 -16 -5 -3 -10 1 -10 9 0 9 5 16 10 16 6 0 10 -4 10 -9z m1300
-244 c114 -56 110 -225 -7 -283 -36 -18 -71 -19 -588 -22 -302 -2 -569 0 -593
3 -63 9 -128 73 -137 136 -5 31 -2 57 8 81 9 20 12 40 9 44 -4 4 -2 4 5 1 6
-4 13 -3 15 2 1 5 21 20 42 35 l40 27 585 -3 c535 -3 589 -5 621 -21z m-1622
-344 l0 -38 -18 35 c-13 24 -15 37 -7 42 18 11 25 0 25 -39z m36 -79 c3 -8 2
-12 -4 -9 -6 3 -10 10 -10 16 0 14 7 11 14 -7z"/>
<path d="M2243 2980 c-56 -12 -145 -56 -191 -96 -66 -56 -122 -182 -122 -275
0 -180 138 -340 328 -380 105 -21 241 22 330 105 166 155 149 432 -35 572 -81
62 -216 94 -310 74z"/>
<path d="M3753 2980 c-76 -11 -140 -46 -209 -114 -96 -96 -130 -210 -99 -336
30 -121 103 -213 215 -270 62 -32 197 -40 272 -16 201 65 322 301 248 486 -70
177 -241 277 -427 250z"/>
<path d="M5250 2146 c0 -2 7 -7 16 -10 8 -3 12 -2 9 4 -6 10 -25 14 -25 6z"/>
<path d="M2368 1860 c-105 -56 -133 -208 -55 -297 67 -76 34 -73 760 -73 713
0 688 -2 754 62 86 83 69 233 -33 298 l-48 30 -670 0 c-646 -1 -672 -2 -708
-20z"/>
<path d="M4658 1523 c7 -3 16 -2 19 1 4 3 -2 6 -13 5 -11 0 -14 -3 -6 -6z"/>
<path d="M4648 1503 c12 -2 30 -2 40 0 9 3 -1 5 -23 4 -22 0 -30 -2 -17 -4z"/>
<path d="M4520 1465 c-7 -31 -6 -54 1 -49 4 2 5 12 2 21 -4 10 -2 14 5 9 6 -3
14 -1 18 5 4 7 3 9 -4 5 -5 -3 -13 0 -15 6 -3 7 -6 9 -7 3z"/>
<path d="M4495 1390 c3 -5 8 -10 11 -10 2 0 4 5 4 10 0 6 -5 10 -11 10 -5 0
-7 -4 -4 -10z"/>
<path d="M4491 1344 c0 -11 3 -14 6 -6 3 7 2 16 -1 19 -3 4 -6 -2 -5 -13z"/>
<path d="M4101 844 c0 -11 3 -14 6 -6 3 7 2 16 -1 19 -3 4 -6 -2 -5 -13z"/>
<path d="M4143 818 c7 -21 -4 -23 -21 -6 -7 7 -12 8 -12 4 0 -8 38 -46 46 -46
6 0 -4 51 -11 58 -5 4 -5 -1 -2 -10z"/>
<path d="M4191 644 c0 -11 3 -14 6 -6 3 7 2 16 -1 19 -3 4 -6 -2 -5 -13z"/>
</g>
</svg>
